<svg width="10" height="10" viewBox="0 0 10 10" fill="none" xmlns="http://www.w3.org/2000/svg">
<g filter="url(#filter0_ii_139_313)">
<path fill-rule="evenodd" clip-rule="evenodd" d="M5 10C7.76142 10 10 7.76142 10 5C10 2.23858 7.76142 0 5 0C2.23858 0 0 2.23858 0 5C0 7.76142 2.23858 10 5 10ZM7.64901 3.68899C7.84544 3.45328 7.81359 3.10297 7.57788 2.90654C7.34217 2.71012 6.99186 2.74197 6.79543 2.97768L4.79657 5.37631C4.60395 5.60746 4.49566 5.73543 4.40921 5.81406L4.40591 5.81705L4.40234 5.81437C4.30913 5.74389 4.1897 5.62625 3.97694 5.41349L3.17062 4.60716C2.95366 4.39021 2.6019 4.39021 2.38494 4.60716C2.16798 4.82412 2.16798 5.17588 2.38494 5.39284L3.21395 6.22185C3.39534 6.40331 3.56983 6.57787 3.73219 6.70064C3.91406 6.83816 4.15223 6.96748 4.45746 6.95363C4.76269 6.93978 4.98818 6.78944 5.15685 6.63601C5.30743 6.49905 5.4654 6.30941 5.62961 6.11228L7.64901 3.68899Z" fill="url(#paint0_linear_139_313)"/>
</g>
<defs>
<filter id="filter0_ii_139_313" x="0" y="-0.746667" width="10" height="11.4933" filterUnits="userSpaceOnUse" color-interpolation-filters="sRGB">
<feFlood flood-opacity="0" result="BackgroundImageFix"/>
<feBlend mode="normal" in="SourceGraphic" in2="BackgroundImageFix" result="shape"/>
<feColorMatrix in="SourceAlpha" type="matrix" values="0 0 0 0 0 0 0 0 0 0 0 0 0 0 0 0 0 0 127 0" result="hardAlpha"/>
<feOffset dy="0.746667"/>
<feGaussianBlur stdDeviation="0.373333"/>
<feComposite in2="hardAlpha" operator="arithmetic" k2="-1" k3="1"/>
<feColorMatrix type="matrix" values="0 0 0 0 0 0 0 0 0 0.436706 0 0 0 0 0.486745 0 0 0 1 0"/>
<feBlend mode="normal" in2="shape" result="effect1_innerShadow_139_313"/>
<feColorMatrix in="SourceAlpha" type="matrix" values="0 0 0 0 0 0 0 0 0 0 0 0 0 0 0 0 0 0 127 0" result="hardAlpha"/>
<feOffset dy="-0.746667"/>
<feGaussianBlur stdDeviation="0.373333"/>
<feComposite in2="hardAlpha" operator="arithmetic" k2="-1" k3="1"/>
<feColorMatrix type="matrix" values="0 0 0 0 0 0 0 0 0 0.301176 0 0 0 0 0.335686 0 0 0 1 0"/>
<feBlend mode="normal" in2="effect1_innerShadow_139_313" result="effect2_innerShadow_139_313"/>
</filter>
<linearGradient id="paint0_linear_139_313" x1="5" y1="0" x2="5" y2="10" gradientUnits="userSpaceOnUse">
<stop stop-color="#00515A"/>
<stop offset="1" stop-color="#006C78"/>
</linearGradient>
</defs>
</svg>