<svg width="10" height="10" viewBox="0 0 10 10" fill="none" xmlns="http://www.w3.org/2000/svg">
<path fill-rule="evenodd" clip-rule="evenodd" d="M10 5C10 7.76142 7.76142 10 5 10C2.23858 10 0 7.76142 0 5C0 2.23858 2.23858 0 5 0C7.76142 0 10 2.23858 10 5ZM2.42422 7.57578C2.22896 7.38051 2.22896 7.06393 2.42422 6.86867L4.29289 5L2.42422 3.13133C2.22896 2.93607 2.22896 2.61949 2.42422 2.42422C2.61949 2.22896 2.93607 2.22896 3.13133 2.42422L5 4.29289L6.86867 2.42422C7.06393 2.22896 7.38051 2.22896 7.57578 2.42422C7.77104 2.61949 7.77104 2.93607 7.57578 3.13133L5.70711 5L7.57578 6.86867C7.77104 7.06393 7.77104 7.38051 7.57578 7.57578C7.38051 7.77104 7.06393 7.77104 6.86867 7.57578L5 5.70711L3.13133 7.57578C2.93607 7.77104 2.61949 7.77104 2.42422 7.57578Z" fill="black" fill-opacity="0.15"/>
</svg>