<svg width="8" height="8" viewBox="0 0 8 8" fill="none" xmlns="http://www.w3.org/2000/svg">
    <path d="M1.09647 4.77646C1.2578 5.41436 1.61332 5.97803 2.10786 6.38006C2.60241 6.78209 3.20835 7 3.83171 7C4.45508 7 5.06102 6.78209 5.55557 6.38006C6.05011 5.97803 6.40563 5.41436 6.56696 4.77646" stroke="white" stroke-width="1.3"/>
    <path d="M3.83173 1L3.45675 0.46907L3.83173 0.204226L4.20672 0.46907L3.83173 1ZM4.48173 4C4.48173 4.35899 4.19072 4.65 3.83173 4.65C3.47275 4.65 3.18173 4.35899 3.18173 4L4.48173 4ZM1.56892 1.8024L3.45675 0.46907L4.20672 1.53093L2.31889 2.86426L1.56892 1.8024ZM4.20672 0.46907L6.09454 1.8024L5.34457 2.86426L3.45675 1.53093L4.20672 0.46907ZM4.48173 1L4.48173 4L3.18173 4L3.18173 1L4.48173 1Z" fill="white"/>
</svg>