<svg width="21" height="20" viewBox="0 0 21 20" fill="none" xmlns="http://www.w3.org/2000/svg">
    <path d="M3 7L1.93934 8.06066L0.878679 7L1.93934 5.93934L3 7ZM8 19.5C7.17157 19.5 6.5 18.8284 6.5 18C6.5 17.1716 7.17157 16.5 8 16.5L8 19.5ZM6.93934 13.0607L1.93934 8.06066L4.06066 5.93934L9.06066 10.9393L6.93934 13.0607ZM1.93934 5.93934L6.93934 0.93934L9.06066 3.06066L4.06066 8.06066L1.93934 5.93934ZM3 5.5L13.5 5.5L13.5 8.5L3 8.5L3 5.5ZM13.5 19.5L8 19.5L8 16.5L13.5 16.5L13.5 19.5ZM20.5 12.5C20.5 16.366 17.366 19.5 13.5 19.5L13.5 16.5C15.7091 16.5 17.5 14.7091 17.5 12.5L20.5 12.5ZM13.5 5.5C17.366 5.5 20.5 8.634 20.5 12.5L17.5 12.5C17.5 10.2909 15.7091 8.5 13.5 8.5L13.5 5.5Z" fill="white"/>
</svg>